<?xml version="1.0" encoding="UTF-8" standalone="no"?>
<!-- Created with Inkscape (http://www.inkscape.org/) -->

<svg
   width="100"
   height="100"
   viewBox="0 0 26.458333 26.458333"
   version="1.1"
   id="svg1"
   inkscape:version="1.3.2 (091e20e, 2023-11-25, custom)"
   sodipodi:docname="background-games-pattern-color.svg"
   xmlns:inkscape="http://www.inkscape.org/namespaces/inkscape"
   xmlns:sodipodi="http://sodipodi.sourceforge.net/DTD/sodipodi-0.dtd"
   xmlns="http://www.w3.org/2000/svg"
   xmlns:svg="http://www.w3.org/2000/svg">
  <sodipodi:namedview
     id="namedview1"
     pagecolor="#ffffff"
     bordercolor="#000000"
     borderopacity="0.25"
     inkscape:showpageshadow="2"
     inkscape:pageopacity="0.0"
     inkscape:pagecheckerboard="0"
     inkscape:deskcolor="#d1d1d1"
     inkscape:document-units="px"
     inkscape:zoom="3.9660278"
     inkscape:cx="42.107622"
     inkscape:cy="72.742808"
     inkscape:window-width="1920"
     inkscape:window-height="1001"
     inkscape:window-x="2391"
     inkscape:window-y="-9"
     inkscape:window-maximized="1"
     inkscape:current-layer="layer1" />
  <defs
     id="defs1" />
  <g
     inkscape:label="Layer 1"
     inkscape:groupmode="layer"
     id="layer1">
    <g
       style="opacity:0.276139;fill:none;stroke:#0051b9;stroke-opacity:1"
       id="g2"
       transform="matrix(0.07390041,0.0763929,-0.07390041,0.0763929,22.084959,15.938246)"
       inkscape:export-filename="..\..\..\Documents\aplikacje AI\zasoby\backg12.png"
       inkscape:export-xdpi="114.14624"
       inkscape:export-ydpi="114.14624">
      <path
         d="m 56.4156,22.0251 c 3.1181,-0.2777 6.2932,0.2791 9.1826,1.6706 4.8172,2.3198 8.3158,6.707 9.5056,11.9196 1.1897,5.2126 -0.059,10.6833 -3.3925,14.8634 -3.3336,4.1802 -8.3893,6.6149 -13.736,6.6149 -5.1092,0 -9.9528,-2.2233 -13.2818,-6.0685 h -7.9462 c -0.0606,0.0786 -0.1218,0.1568 -0.1838,0.2345 -3.4191,4.2874 -8.6044,6.7845 -14.0882,6.7845 -5.4837,0 -10.669,-2.4971 -14.08807,-6.7845 C 4.96818,46.9722 3.68751,41.3613 4.90776,36.015 6.128,30.6688 9.71636,26.1691 14.657,23.7898 c 2.7307,-1.315 5.7102,-1.9032 8.6635,-1.7647 z"
         stroke="#c2ccde"
         stroke-linecap="round"
         stroke-linejoin="round"
         id="path1"
         style="stroke:#0051b9;stroke-opacity:1" />
      <path
         d="m 22.4753,29.5222 c 1.3808,0 2.5,1.1193 2.5,2.5 v 4.5 h 4.5 c 1.3808,0 2.5,1.1193 2.5,2.5 0,1.3807 -1.1192,2.5 -2.5,2.5 h -4.5 v 4.5 c 0,1.3807 -1.1192,2.5 -2.5,2.5 -1.3807,0 -2.5,-1.1193 -2.5,-2.5 v -4.5 h -4.5 c -1.3807,0 -2.5,-1.1193 -2.5,-2.5 0,-1.3807 1.1193,-2.5 2.5,-2.5 h 4.5 v -4.5 c 0,-1.3807 1.1193,-2.5 2.5,-2.5 z"
         stroke="#c2ccde"
         stroke-linecap="round"
         stroke-linejoin="round"
         id="path2-4"
         style="stroke:#0051b9;stroke-opacity:1" />
      <path
         d="m 48.9752,37.0223 c 1.1045,-1.1046 2.8954,-1.1046 4,0 1.1045,1.1045 1.1045,2.8954 0,4 -1.1046,1.1045 -2.8955,1.1045 -4,0 -1.1046,-1.1046 -1.1046,-2.8955 0,-4 z"
         stroke="#c2ccde"
         stroke-linecap="round"
         stroke-linejoin="round"
         id="path3-9"
         style="stroke:#0051b9;stroke-opacity:1" />
      <path
         d="m 55.9752,44.0223 c 1.1045,-1.1046 2.8954,-1.1046 4,0 1.1045,1.1045 1.1045,2.8954 0,4 -1.1046,1.1045 -2.8955,1.1045 -4,0 -1.1046,-1.1046 -1.1046,-2.8955 0,-4 z"
         stroke="#c2ccde"
         stroke-linecap="round"
         stroke-linejoin="round"
         id="path4-5"
         style="stroke:#0051b9;stroke-opacity:1" />
      <path
         d="m 55.9752,30.0223 c 1.1045,-1.1046 2.8954,-1.1046 4,0 1.1045,1.1045 1.1045,2.8954 0,4 -1.1046,1.1045 -2.8955,1.1045 -4,0 -1.1046,-1.1046 -1.1046,-2.8955 0,-4 z"
         stroke="#c2ccde"
         stroke-linecap="round"
         stroke-linejoin="round"
         id="path5-3"
         style="stroke:#0051b9;stroke-opacity:1" />
      <path
         d="m 62.9752,37.0223 c 1.1045,-1.1046 2.8954,-1.1046 4,0 1.1045,1.1045 1.1045,2.8954 0,4 -1.1046,1.1045 -2.8955,1.1045 -4,0 -1.1046,-1.1046 -1.1046,-2.8955 0,-4 z"
         stroke="#c2ccde"
         stroke-linecap="round"
         stroke-linejoin="round"
         id="path6-7"
         style="stroke:#0051b9;stroke-opacity:1" />
    </g>
    <g
       style="opacity:0.276139;fill:none;stroke-width:0.99937341;stroke-dasharray:none;stroke:#d60000;stroke-opacity:1"
       id="g3"
       transform="matrix(0.09277764,0.09481379,-0.09277764,0.09481379,4.3636162,-2.9625038)">
      <path
         d="m 30,30 c 0,10e-5 10e-5,0 0,0 z m 0,0 10e-5,-15 c 0,-1.6569 1.3432,-3 3,-3 h 12 c 1.6569,0 3,1.3432 3,3 v 14.75 c 0,0.1381 0.1119,0.25 0.25,0.25 H 63 c 1.6569,0 3,1.3432 3,3 v 12 c 0,1.6569 -1.3431,3 -3,3 H 48.5 c -0.2761,0 -0.4999,0.2239 -0.4999,0.5 V 63 c 0,1.6569 -1.3431,3 -3,3 h -12 c -1.6568,0 -3,-1.3431 -3,-3 L 30,48 M 30,30 H 15 c -1.6569,0 -3,1.3432 -3,3 v 12 c 0,1.6569 1.3431,3 3,3 h 15 m 0,0 c 10e-5,0 0,-1e-4 0,0 z"
         stroke="#c2ccde"
         stroke-linecap="round"
         stroke-linejoin="round"
         id="path1-8"
         style="stroke-width:0.99937341;stroke-dasharray:none;stroke:#d60000;stroke-opacity:1" />
      <path
         d="m 21,42.9893 v -8 l -4,4 z"
         stroke="#c2ccde"
         stroke-linecap="round"
         stroke-linejoin="round"
         id="path2-3"
         style="stroke-width:0.99937341;stroke-dasharray:none;stroke:#d60000;stroke-opacity:1" />
      <path
         d="m 42.9895,21 h -8 l 4,-4 z"
         stroke="#c2ccde"
         stroke-linecap="round"
         stroke-linejoin="round"
         id="path3-1"
         style="stroke-width:0.99937341;stroke-dasharray:none;stroke:#d60000;stroke-opacity:1" />
      <path
         d="m 57,42.9893 v -8 l 4,4 z"
         stroke="#c2ccde"
         stroke-linecap="round"
         stroke-linejoin="round"
         id="path4-8"
         style="stroke-width:0.99937341;stroke-dasharray:none;stroke:#d60000;stroke-opacity:1" />
      <path
         d="m 42.9893,57 h -8 l 4,4 z"
         stroke="#c2ccde"
         stroke-linecap="round"
         stroke-linejoin="round"
         id="path5-9"
         style="stroke-width:0.99937341;stroke-dasharray:none;stroke:#d60000;stroke-opacity:1" />
      <path
         d="m 43,39 c 0,2.2091 -1.7909,4 -4,4 -2.2091,0 -4,-1.7909 -4,-4 0,-2.2091 1.7909,-4 4,-4 2.2091,0 4,1.7909 4,4 z"
         stroke="#c2ccde"
         stroke-linecap="round"
         stroke-linejoin="round"
         id="path6-8"
         style="stroke-width:0.99937341;stroke-dasharray:none;stroke:#d60000;stroke-opacity:1" />
    </g>
    <g
       style="opacity:0.276139;fill:#000000;fill-opacity:0;stroke:#10000a;stroke-opacity:1"
       id="g4"
       transform="matrix(0.09019666,0.09217617,-0.09019666,0.09217617,4.3636197,14.651262)">
      <path
         d="m 31,15 c 0,-1.6569 1.3431,-3 3,-3 h 12 c 1.6569,0 3,1.3431 3,3 v 10.8488 c 0,0.7411 -0.2743,1.456 -0.7701,2.0069 l -6,6.6667 c -1.1917,1.3241 -3.2681,1.3241 -4.4598,0 l -6,-6.6667 C 31.2743,27.3048 31,26.5899 31,25.8488 Z"
         fill="#c2ccde"
         fill-opacity="0.25"
         id="path1-1"
         style="fill:#000000;fill-opacity:0;stroke:#10000a;stroke-opacity:1" />
      <path
         d="m 65,31 c 1.6569,0 3,1.3431 3,3 v 12 c 0,1.6569 -1.3431,3 -3,3 H 54.1512 c -0.7411,0 -1.456,-0.2743 -2.0069,-0.7701 l -6.6667,-6 c -1.3241,-1.1917 -1.3241,-3.2681 0,-4.4598 l 6.6667,-6 C 52.6952,31.2743 53.4101,31 54.1512,31 Z"
         fill="#c2ccde"
         fill-opacity="0.25"
         id="path2-2"
         style="fill:#000000;fill-opacity:0;stroke:#10000a;stroke-opacity:1" />
      <path
         d="m 31,65 c 0,1.6569 1.3431,3 3,3 h 12 c 1.6569,0 3,-1.3431 3,-3 V 54.1512 c 0,-0.7411 -0.2743,-1.456 -0.7701,-2.0069 l -6,-6.6667 c -1.1917,-1.3241 -3.2681,-1.3241 -4.4598,0 l -6,6.6667 C 31.2743,52.6952 31,53.4101 31,54.1512 Z"
         fill="#c2ccde"
         fill-opacity="0.25"
         id="path3-3"
         style="fill:#000000;fill-opacity:0;stroke:#10000a;stroke-opacity:1" />
      <path
         d="m 15,31 c -1.6569,0 -3,1.3431 -3,3 v 12 c 0,1.6569 1.3431,3 3,3 h 10.8488 c 0.7411,0 1.456,-0.2743 2.0069,-0.7701 l 6.6667,-6 c 1.3241,-1.1917 1.3241,-3.2681 0,-4.4598 l -6.6667,-6 C 27.3048,31.2743 26.5899,31 25.8488,31 Z"
         fill="#c2ccde"
         fill-opacity="0.25"
         id="path4-7"
         style="fill:#000000;fill-opacity:0;stroke:#10000a;stroke-opacity:1" />
      <path
         d="m 31,15 c 0,-1.6569 1.3431,-3 3,-3 h 12 c 1.6569,0 3,1.3431 3,3 v 10.8488 c 0,0.7411 -0.2743,1.456 -0.7701,2.0069 l -6,6.6667 c -1.1917,1.3241 -3.2681,1.3241 -4.4598,0 l -6,-6.6667 C 31.2743,27.3048 31,26.5899 31,25.8488 Z"
         stroke="#c2ccde"
         stroke-linecap="round"
         stroke-linejoin="round"
         id="path5-1"
         style="fill:#000000;fill-opacity:0;stroke:#10000a;stroke-opacity:1" />
      <path
         d="m 65,31 c 1.6569,0 3,1.3431 3,3 v 12 c 0,1.6569 -1.3431,3 -3,3 H 54.1512 c -0.7411,0 -1.456,-0.2743 -2.0069,-0.7701 l -6.6667,-6 c -1.3241,-1.1917 -1.3241,-3.2681 0,-4.4598 l 6.6667,-6 C 52.6952,31.2743 53.4101,31 54.1512,31 Z"
         stroke="#c2ccde"
         stroke-linecap="round"
         stroke-linejoin="round"
         id="path6-72"
         style="fill:#000000;fill-opacity:0;stroke:#10000a;stroke-opacity:1" />
      <path
         d="m 31,65 c 0,1.6569 1.3431,3 3,3 h 12 c 1.6569,0 3,-1.3431 3,-3 V 54.1512 c 0,-0.7411 -0.2743,-1.456 -0.7701,-2.0069 l -6,-6.6667 c -1.1917,-1.3241 -3.2681,-1.3241 -4.4598,0 l -6,6.6667 C 31.2743,52.6952 31,53.4101 31,54.1512 Z"
         stroke="#c2ccde"
         stroke-linecap="round"
         stroke-linejoin="round"
         id="path7"
         style="fill:#000000;fill-opacity:0;stroke:#10000a;stroke-opacity:1" />
      <path
         d="m 15,31 c -1.6569,0 -3,1.3431 -3,3 v 12 c 0,1.6569 1.3431,3 3,3 h 10.8488 c 0.7411,0 1.456,-0.2743 2.0069,-0.7701 l 6.6667,-6 c 1.3241,-1.1917 1.3241,-3.2681 0,-4.4598 l -6.6667,-6 C 27.3048,31.2743 26.5899,31 25.8488,31 Z"
         stroke="#c2ccde"
         stroke-linecap="round"
         stroke-linejoin="round"
         id="path8-8"
         style="fill:#000000;fill-opacity:0;stroke:#10000a;stroke-opacity:1" />
    </g>
    <g
       style="opacity:0.276139;fill:none;stroke:#d6d000;stroke-opacity:1"
       id="g5"
       transform="matrix(0.0704305,0.07469207,-0.0704305,0.07469207,4.7739615,6.6936104)">
      <path
         d="m 12,33.5 c 0,-2.2091 1.7909,-4 4,-4 h 48 c 2.2091,0 4,1.7909 4,4 v 28 c 0,2.2091 -1.7909,4 -4,4 H 16 c -2.2091,0 -4,-1.7909 -4,-4 z"
         stroke="#c2ccde"
         stroke-linecap="round"
         stroke-linejoin="round"
         id="path1-16"
         style="stroke:#d6d000;stroke-opacity:1" />
      <path
         d="M 27,29.5 V 26 c 0,-2.2091 1.7909,-4 4,-4 h 19 c 2.2091,0 4,-1.7909 4,-4 v -3.5"
         stroke="#c2ccde"
         stroke-linecap="round"
         stroke-linejoin="round"
         id="path2-6"
         style="stroke:#d6d000;stroke-opacity:1" />
      <path
         d="m 21,36.5 h -2 v 2 h 2 z"
         stroke="#c2ccde"
         stroke-linecap="round"
         stroke-linejoin="round"
         id="path3-12"
         style="stroke:#d6d000;stroke-opacity:1" />
      <path
         d="m 31,36.5 h -2 v 2 h 2 z"
         stroke="#c2ccde"
         stroke-linecap="round"
         stroke-linejoin="round"
         id="path4-3"
         style="stroke:#d6d000;stroke-opacity:1" />
      <path
         d="m 41,36.5 h -2 v 2 h 2 z"
         stroke="#c2ccde"
         stroke-linecap="round"
         stroke-linejoin="round"
         id="path5-96"
         style="stroke:#d6d000;stroke-opacity:1" />
      <path
         d="m 51,36.5 h -2 v 2 h 2 z"
         stroke="#c2ccde"
         stroke-linecap="round"
         stroke-linejoin="round"
         id="path6-0"
         style="stroke:#d6d000;stroke-opacity:1" />
      <path
         d="m 61,36.5 h -2 v 2 h 2 z"
         stroke="#c2ccde"
         stroke-linecap="round"
         stroke-linejoin="round"
         id="path7-8"
         style="stroke:#d6d000;stroke-opacity:1" />
      <path
         d="m 26,46.5 h -2 v 2 h 2 z"
         stroke="#c2ccde"
         stroke-linecap="round"
         stroke-linejoin="round"
         id="path8-7"
         style="stroke:#d6d000;stroke-opacity:1" />
      <path
         d="m 36,46.5 h -2 v 2 h 2 z"
         stroke="#c2ccde"
         stroke-linecap="round"
         stroke-linejoin="round"
         id="path9-2"
         style="stroke:#d6d000;stroke-opacity:1" />
      <path
         d="m 46,46.5 h -2 v 2 h 2 z"
         stroke="#c2ccde"
         stroke-linecap="round"
         stroke-linejoin="round"
         id="path10"
         style="stroke:#d6d000;stroke-opacity:1" />
      <path
         d="m 56,46.5 h -2 v 2 h 2 z"
         stroke="#c2ccde"
         stroke-linecap="round"
         stroke-linejoin="round"
         id="path11"
         style="stroke:#d6d000;stroke-opacity:1" />
      <path
         d="m 21,56.5 h -2 v 2 h 2 z"
         stroke="#c2ccde"
         stroke-linecap="round"
         stroke-linejoin="round"
         id="path12"
         style="stroke:#d6d000;stroke-opacity:1" />
      <path
         d="M 51,56.5 H 29 v 2 h 22 z"
         stroke="#c2ccde"
         stroke-linecap="round"
         stroke-linejoin="round"
         id="path13"
         style="stroke:#d6d000;stroke-opacity:1" />
      <path
         d="m 61,56.5 h -2 v 2 h 2 z"
         stroke="#c2ccde"
         stroke-linecap="round"
         stroke-linejoin="round"
         id="path14"
         style="stroke:#d6d000;stroke-opacity:1" />
    </g>
    <g
       style="opacity:0.276139;fill:none;stroke:#0015ad;stroke-opacity:1"
       id="g6"
       transform="matrix(0.08685077,0.08875685,-0.08685077,0.08875685,22.094713,-2.6675703)">
      <path
         d="m 22,28 c 0,-8.8366 7.1634,-16 16,-16 h 4 c 8.8366,0 16,7.1634 16,16 v 24 c 0,8.8366 -7.1634,16 -16,16 H 38 C 29.1634,68 22,60.8366 22,52 Z"
         stroke="#c2ccde"
         stroke-linecap="round"
         stroke-linejoin="round"
         id="path1-9"
         style="stroke:#0015ad;stroke-opacity:1" />
      <path
         d="M 58,33 H 22"
         stroke="#c2ccde"
         stroke-linecap="round"
         stroke-linejoin="round"
         id="path2-1"
         style="stroke:#0015ad;stroke-opacity:1" />
      <path
         d="m 40,17 c 1.6569,0 3,1.3431 3,3 v 5 c 0,1.6569 -1.3431,3 -3,3 -1.6569,0 -3,-1.3431 -3,-3 v -5 c 0,-1.6569 1.3431,-3 3,-3 z"
         stroke="#c2ccde"
         stroke-linecap="round"
         stroke-linejoin="round"
         id="path3-7"
         style="stroke:#0015ad;stroke-opacity:1" />
    </g>
    <g
       style="opacity:0.276139;fill:none;stroke:#d68100;stroke-opacity:1"
       id="g7"
       transform="matrix(0.05856859,0.05985086,-0.05856859,0.05985086,12.995079,8.680483)">
      <path
         d="M 61,66 H 19"
         stroke="#c2ccde"
         stroke-linecap="round"
         stroke-linejoin="round"
         id="path1-7"
         style="stroke:#d68100;stroke-opacity:1" />
      <path
         d="m 40,58 v 8"
         stroke="#c2ccde"
         stroke-linecap="round"
         stroke-linejoin="round"
         id="path2-5"
         style="stroke:#d68100;stroke-opacity:1" />
      <path
         d="m 5,18.0005 c 0,-2.2093 1.79109,-4.0002 4.00038,-4 l 62.00002,0.0058 c 2.209,2e-4 3.9996,1.791 3.9996,4 v 35.9938 c 0,2.2092 -1.7909,4 -4,4 H 9 c -2.20914,0 -4,-1.7908 -4,-4 z"
         stroke="#c2ccde"
         stroke-linecap="round"
         stroke-linejoin="round"
         id="path3-78"
         style="stroke:#d68100;stroke-opacity:1" />
    </g>
    <g
       style="opacity:0.276139;fill:none;stroke:#00b62b;stroke-opacity:1"
       id="g8"
       transform="matrix(0.06291634,0.06429714,-0.06291634,0.06429714,13.229166,-0.71079354)">
      <path
         d="m 16,14 c 0,-1.1046 0.8954,-2 2,-2 h 44 c 1.1046,0 2,0.8954 2,2 v 52 c 0,1.1046 -0.8954,2 -2,2 H 18 c -1.1046,0 -2,-0.8954 -2,-2 z"
         stroke="#c2ccde"
         stroke-linecap="round"
         stroke-linejoin="round"
         id="path1-6"
         style="stroke:#00b62b;stroke-opacity:1" />
      <path
         d="M 44,62 H 36"
         stroke="#c2ccde"
         stroke-linecap="round"
         stroke-linejoin="round"
         id="path2-58"
         style="stroke:#00b62b;stroke-opacity:1" />
      <path
         d="m 22,21 c 0,-1.6569 1.3431,-3 3,-3 h 30 c 1.6569,0 3,1.3431 3,3 v 32 c 0,1.6569 -1.3431,3 -3,3 H 25 c -1.6569,0 -3,-1.3431 -3,-3 z"
         stroke="#c2ccde"
         stroke-linecap="round"
         stroke-linejoin="round"
         id="path3-72"
         style="stroke:#00b62b;stroke-opacity:1" />
    </g>
    <g
       style="opacity:0.276139;fill:none;stroke:#d60088;stroke-opacity:1"
       id="g9"
       transform="matrix(0.06090543,0.06224209,-0.06090543,0.06224209,22.285279,8.0550513)">
      <path
         d="m 12,56.2559 v -36 c 0,-2.2092 1.7909,-4 4,-4 h 48 c 2.2091,0 4,1.7908 4,4 v 36"
         stroke="#c2ccde"
         stroke-linecap="round"
         stroke-linejoin="round"
         id="path1-60"
         style="stroke:#d60088;stroke-opacity:1" />
      <path
         d="M 32.126,56.2559 H 4.15215 C 4.06812,56.2559 4,56.324 4,56.408 c 0,4.3343 3.51361,7.8479 7.8479,7.8479 H 68.1521 C 72.4864,64.2559 76,60.7423 76,56.408 76,56.324 75.9319,56.2559 75.8479,56.2559 H 47.874 c -0.4441,1.7252 -2.0102,3 -3.874,3 h -8 c -1.8638,0 -3.4299,-1.2748 -3.874,-3 z"
         stroke="#c2ccde"
         stroke-linecap="round"
         stroke-linejoin="round"
         id="path2-36"
         style="stroke:#d60088;stroke-opacity:1" />
    </g>
    <g
       style="opacity:0.276139;fill:none;stroke:#00cd72;stroke-opacity:1"
       id="g10"
       transform="matrix(0.06276132,0.06387453,-0.06276132,0.06387453,13.136879,16.807822)">
      <path
         d="M 22,11 H 63.0204 C 63.5614,11 64,11.4386 64,11.9796 V 56.75 C 64,56.8881 63.8881,57 63.75,57 H 22 c -3.2298,0 -5.8636,2.552 -5.9949,5.7496 C 16.0049,62.7548 16,62.7552 16,62.75 V 17 c 0,-3.3137 2.6863,-6 6,-6 z"
         stroke="#c2ccde"
         stroke-linecap="round"
         stroke-linejoin="round"
         id="path1-66"
         style="stroke:#00cd72;stroke-opacity:1" />
      <path
         d="M 63.75,69 H 22 c -3.3137,0 -6,-2.6863 -6,-6 0,-3.3137 2.6863,-6 6,-6"
         stroke="#c2ccde"
         stroke-linecap="round"
         stroke-linejoin="round"
         id="path2-51"
         style="stroke:#00cd72;stroke-opacity:1" />
      <path
         d="M 63.75,69 C 63.8881,69 64,68.8881 64,68.75 V 68.2983 C 64,67.7268 63.7412,67.1942 63.3755,66.755 62.5166,65.7236 62,64.3971 62,62.95 62,61.5029 62.5166,60.1764 63.3755,59.145 63.7412,58.7058 64,58.1732 64,57.6017 V 57.0625 C 64,57.028 63.972,57 63.9375,57"
         stroke="#c2ccde"
         stroke-linecap="round"
         stroke-linejoin="round"
         id="path3-4"
         style="stroke:#00cd72;stroke-opacity:1" />
      <path
         d="m 34.5939,21.7202 c 3.1693,-1.3128 6.7303,-1.3128 9.8995,0 3.1693,1.3127 5.6873,3.8307 7,7 1.3128,3.1692 1.3128,6.7302 0,9.8995 -1.3127,3.1692 -3.8307,5.6872 -7,7 -3.1692,1.3127 -6.7302,1.3127 -9.8995,0 -3.1692,-1.3128 -5.6872,-3.8308 -7,-7 -1.3127,-3.1693 -1.3127,-6.7303 0,-9.8995 1.3128,-3.1693 3.8308,-5.6873 7,-7 z"
         stroke="#c2ccde"
         stroke-linecap="round"
         stroke-linejoin="round"
         id="path4-77"
         style="stroke:#00cd72;stroke-opacity:1" />
      <path
         d="m 44.0033,26.4116 c 1.9254,4.6482 1.9254,9.871 0,14.5192 -0.8712,2.1034 -2.1044,4.0111 -3.6242,5.648 -0.556,0.036 -1.1137,0.036 -1.6697,10e-5 -1.5203,-1.6372 -2.7539,-3.5453 -3.6254,-5.6492 -1.9253,-4.6483 -1.9253,-9.871 0,-14.5193 0.871,-2.1025 2.1035,-4.0096 3.6226,-5.6461 0.5571,-0.0361 1.116,-0.0362 1.673,-10e-5 1.5196,1.6368 2.7526,3.5443 3.6237,5.6474 z"
         stroke="#c2ccde"
         stroke-linecap="round"
         stroke-linejoin="round"
         id="path5-8"
         style="stroke:#00cd72;stroke-opacity:1" />
      <path
         d="M 27.3098,37.87 H 51.7767 M 27.4801,29.0033 h 24.1263"
         stroke="#c2ccde"
         stroke-linecap="round"
         stroke-linejoin="round"
         id="path6-89"
         style="stroke:#00cd72;stroke-opacity:1" />
    </g>
  </g>
</svg>
